0
SECTION
2
HEADER
9
$INSUNITS
70
4
9
$ACADVER
1
AC1014
9
$HANDSEED
5
FFFF
0
ENDSEC
0
SECTION
2
TABLES
0
TABLE
2
VPORT
5
8
100
AcDbSymbolTable
0
ENDTAB
0
TABLE
2
LTYPE
5
5
100
AcDbSymbolTable
0
LTYPE
5
14
100
AcDbSymbolTableRecord
100
AcDbLinetypeTableRecord
2
BYBLOCK
70
0
0
LTYPE
5
15
100
AcDbSymbolTableRecord
100
AcDbLinetypeTableRecord
2
BYLAYER
70
0
0
ENDTAB
0
TABLE
2
LAYER
5
2
100
AcDbSymbolTable
70
2
0
LAYER
5
50
100
AcDbSymbolTableRecord
100
AcDbLayerTableRecord
2
0
70
0
6
CONTINUOUS
0
ENDTAB
0
TABLE
2
STYLE
5
3
100
AcDbSymbolTable
70
1
0
STYLE
5
11
100
AcDbSymbolTableRecord
100
AcDbTextStyleTableRecord
2
STANDARD
70
0
0
ENDTAB
0
TABLE
2
VIEW
5
6
100
AcDbSymbolTable
70
0
0
ENDTAB
0
TABLE
2
UCS
5
7
100
AcDbSymbolTable
70
0
0
ENDTAB
0
TABLE
2
APPID
5
9
100
AcDbSymbolTable
70
2
0
APPID
5
12
100
AcDbSymbolTableRecord
100
AcDbRegAppTableRecord
2
ACAD
70
0
0
ENDTAB
0
TABLE
2
DIMSTYLE
5
A
100
AcDbSymbolTable
70
1
0
ENDTAB
0
TABLE
2
BLOCK_RECORD
5
1
100
AcDbSymbolTable
70
1
0
BLOCK_RECORD
5
1F
100
AcDbSymbolTableRecord
100
AcDbBlockTableRecord
2
*MODEL_SPACE
0
BLOCK_RECORD
5
1B
100
AcDbSymbolTableRecord
100
AcDbBlockTableRecord
2
*PAPER_SPACE
0
ENDTAB
0
ENDSEC
0
SECTION
2
BLOCKS
0
BLOCK
5
20
100
AcDbEntity
100
AcDbBlockBegin
2
*MODEL_SPACE
0
ENDBLK
5
21
100
AcDbEntity
100
AcDbBlockEnd
0
BLOCK
5
1C
100
AcDbEntity
100
AcDbBlockBegin
2
*PAPER_SPACE
0
ENDBLK
5
1D
100
AcDbEntity
100
AcDbBlockEnd
0
ENDSEC
0
SECTION
2
ENTITIES
0
CIRCLE
5
100
100
AcDbEntity
8
0
100
AcDbCircle
10
22.058312636155406
20
91.979938231984235
30
0
40
1.1000000000000001
210
0
220
0
230
1
0
CIRCLE
5
101
100
AcDbEntity
8
0
100
AcDbCircle
10
94.058312636155406
20
99.479938231984235
30
0
40
1.1000000000000001
210
0
220
0
230
1
0
CIRCLE
5
102
100
AcDbEntity
8
0
100
AcDbCircle
10
174.05831263615539
20
99.479938231984235
30
0
40
1.1000000000000001
210
0
220
0
230
1
0
CIRCLE
5
103
100
AcDbEntity
8
0
100
AcDbCircle
10
246.05831263615542
20
91.979938231984235
30
0
40
1.1000000000000001
210
0
220
0
230
1
0
CIRCLE
5
104
100
AcDbEntity
8
0
100
AcDbCircle
10
101.55831263615541
20
37.979938231984235
30
0
40
1.1000000000000001
210
0
220
0
230
1
0
CIRCLE
5
105
100
AcDbEntity
8
0
100
AcDbCircle
10
14.05831263615541
20
30.479938231984232
30
0
40
1.1000000000000001
210
0
220
0
230
1
0
CIRCLE
5
106
100
AcDbEntity
8
0
100
AcDbCircle
10
74.058312636155406
20
17.479938231984224
30
0
40
1.1000000000000001
210
0
220
0
230
1
0
CIRCLE
5
107
100
AcDbEntity
8
0
100
AcDbCircle
10
166.55831263615539
20
37.979938231984235
30
0
40
1.1000000000000001
210
0
220
0
230
1
0
CIRCLE
5
108
100
AcDbEntity
8
0
100
AcDbCircle
10
194.05831263615539
20
17.479938231984224
30
0
40
1.1000000000000001
210
0
220
0
230
1
0
CIRCLE
5
109
100
AcDbEntity
8
0
100
AcDbCircle
10
254.05831263615539
20
30.479938231984232
30
0
40
1.1000000000000001
210
0
220
0
230
1
0
LINE
5
110
100
AcDbEntity
8
0
100
AcDbLine
10
242.92035391726543
20
105.59989333208122
30
0
11
25.195796636155379
21
105.59989223198423
31
0
0
ARC
5
111
100
AcDbEntity
8
0
100
AcDbCircle
10
25.195796636155411
20
85.599893231984225
30
0
40
19.999999000000006
210
0
220
0
230
1
100
AcDbArc
50
90.000000000000099
51
174.99998912998399
0
LINE
5
112
100
AcDbEntity
8
0
100
AcDbLine
10
5.2719040012150531
20
87.343011779694166
30
0
11
1.2792526361554124
21
41.706896231984238
31
0
0
ARC
5
113
100
AcDbEntity
8
0
100
AcDbCircle
10
21.203145636155408
20
39.963778231984229
30
0
40
19.999999315934311
210
0
220
0
230
1
100
AcDbArc
50
174.99999078423593
51
266.5511593442348
0
ARC
5
114
100
AcDbEntity
8
0
100
AcDbCircle
10
4.0583126361559474
20
-244.5200617680124
30
0
40
265.00000019123667
210
0
220
-0
230
1
100
AcDbArc
50
73.398450574461478
51
86.55115768823913
0
ARC
5
115
100
AcDbEntity
8
0
100
AcDbCircle
10
134.05831163615542
20
191.51319323198422
30
0
40
189.99999893611715
210
0
220
0
230
1
100
AcDbArc
50
253.3984503952357
51
286.60154959523373
0
ARC
5
116
100
AcDbEntity
8
0
100
AcDbCircle
10
264.05831163615534
20
-244.52006176801629
30
0
40
265.00000088840051
210
0
220
0
230
1
100
AcDbArc
50
93.448748010820012
51
106.60154963956933
0
ARC
5
117
100
AcDbEntity
8
0
100
AcDbCircle
10
246.91394563615543
20
39.963806231984229
30
0
40
19.999999879641027
210
-0
220
0
230
1
100
AcDbArc
50
-86.551250115699887
51
5.0011877143130317
0
LINE
5
118
100
AcDbEntity
8
0
100
AcDbLine
10
266.83780333985925
20
41.707334088934559
30
0
11
262.84421163615536
21
87.343420231984226
31
0
0
ARC
5
119
100
AcDbEntity
8
0
100
AcDbCircle
10
242.9203536361554
20
85.599893231984225
30
0
40
20.000000100097299
210
0
220
-0
230
1
100
AcDbArc
50
5.0011851946800752
51
89.999999194679091
0
LWPOLYLINE
5
120
100
AcDbEntity
8
0
100
AcDbPolyline
90
8
70
1
43
0.0
10
182.36345882106107
20
141.20676247652651
10
183.39189646669325
20
152.96185992440189
42
0.41421356237336165
10
182.48285750040145
20
154.04521035605509
10
170.72776005252607
20
155.07364800168716
42
0.41421356237335444
10
169.64440962087286
20
154.16460903539542
10
168.6159719752408
20
142.40951158752
42
0.41421356237335877
10
169.52501094153249
20
141.32616115586686
10
181.28010838940793
20
140.29772351023476
42
0.41421356237336304
0
LWPOLYLINE
5
121
100
AcDbEntity
8
0
100
AcDbPolyline
90
8
70
1
43
0.0
10
200.19647254142222
20
149.98592053505826
10
188.44137509354681
20
151.01435818069041
42
0.41421356237334184
10
187.35802466189364
20
150.10531921439861
10
186.3295870162616
20
138.35022176652319
42
0.41421356237334833
10
187.23862598255326
20
137.26687133487002
10
198.99372343042867
20
136.23843368923792
42
0.41421356237336954
10
200.07707386208185
20
137.14747265552967
10
201.10551150771391
20
148.90257010340508
42
0.41421356237335827
0
ARC
5
122
100
AcDbEntity
8
0
100
AcDbCircle
10
83.55831243404738
20
126.59989252687275
30
0
40
20
210
0
220
0
230
1
100
AcDbArc
50
-89.99999971050164
51
0
0
LINE
5
123
100
AcDbEntity
8
0
100
AcDbLine
10
103.55831243404738
20
126.59989272898076
30
0
11
103.55831213825925
21
155.87019218421941
31
0
0
ARC
5
124
100
AcDbEntity
8
0
100
AcDbCircle
10
104.55831213825924
20
155.8701921943248
30
0
40
1.0000000000000011
210
0
220
0
230
1
100
AcDbArc
50
98.979708481710503
51
180
0
ARC
5
125
100
AcDbEntity
8
0
100
AcDbCircle
10
134.05831302477139
20
-30.813362372073367
30
0
40
189.99999893611007
210
0
220
-0
230
1
100
AcDbArc
50
81.050982155991491
51
98.979708481711384
0
ARC
5
126
100
AcDbEntity
8
0
100
AcDbCircle
10
163.45831213809981
20
155.88596716605292
30
0
40
1.0000000000000144
210
0
220
-0
230
1
100
AcDbArc
50
0
51
81.05098215599331
0
LINE
5
127
100
AcDbEntity
8
0
100
AcDbLine
10
164.45831213809981
20
155.88596717615835
30
0
11
164.45831243404734
21
126.59989283458208
31
0
0
ARC
5
128
100
AcDbEntity
8
0
100
AcDbCircle
10
184.45831243404734
20
126.59989303669009
30
0
40
20
210
0
220
0
230
1
100
AcDbArc
50
180
51
270.00000028949842
0
LINE
5
129
100
AcDbEntity
8
0
100
AcDbLine
10
184.45831253510136
20
106.59989303669013
30
0
11
242.92035391726543
21
106.59989333208119
31
0
0
ARC
5
130
100
AcDbEntity
8
0
100
AcDbCircle
10
242.92035343404734
20
126.59989343217825
30
0
40
20.000000100097054
210
0
220
0
230
1
100
AcDbArc
50
270.00000138431784
51
354.99881538431663
0
LINE
5
131
100
AcDbEntity
8
0
100
AcDbLine
10
262.84421145166613
20
124.85636663351681
30
0
11
266.83780269419549
21
170.49245281692365
31
0
0
ARC
5
132
100
AcDbEntity
8
0
100
AcDbCircle
10
246.91394497287644
20
172.23598047253506
30
0
40
19.999999879631151
210
0
220
0
230
1
100
AcDbArc
50
-5.0011871353162469
51
86.551250694697018
0
ARC
5
133
100
AcDbEntity
8
0
100
AcDbCircle
10
264.05830809805275
20
456.71984864578491
30
0
40
265.00000088839914
210
0
220
0
230
1
100
AcDbArc
50
253.39845093942742
51
266.55125256817678
0
ARC
5
134
100
AcDbEntity
8
0
100
AcDbCircle
10
134.05831250434375
20
20.686592332083684
30
0
40
189.99999852467141
210
0
220
-0
230
1
100
AcDbArc
50
73.398450983763112
51
106.60155018376113
0
ARC
5
135
100
AcDbEntity
8
0
100
AcDbCircle
10
4.0583090980522929
20
456.71984601838506
30
0
40
265.0000001912436
210
0
220
0
230
1
100
AcDbArc
50
273.44884289075782
51
286.60155000453517
0
ARC
5
136
100
AcDbEntity
8
0
100
AcDbCircle
10
21.203144972876178
20
172.2360061916369
30
0
40
20.000000720590641
210
0
220
0
230
1
100
AcDbArc
50
93.448841234761986
51
185.00000979476096
0
LINE
5
137
100
AcDbEntity
8
0
100
AcDbLine
10
1.2792519904913813
20
170.49288799029799
30
0
11
5.2719038167213057
21
124.8567724829353
31
0
0
ARC
5
138
100
AcDbEntity
8
0
100
AcDbCircle
10
25.195796434047409
20
126.59989123198423
30
0
40
19.99999900000066
210
0
220
0
230
1
100
AcDbArc
50
185.00001144901282
51
270.00000057899683
0
LINE
5
139
100
AcDbEntity
8
0
100
AcDbLine
10
25.195796636155414
20
106.59989223198421
30
0
11
83.558312535101379
21
106.59989252687275
31
0
0
LWPOLYLINE
5
140
100
AcDbEntity
8
0
100
AcDbPolyline
90
8
70
1
43
0.0
10
253.47938695494332
20
127.95818619518147
10
254.50782460057547
20
139.71328364305688
42
0.41421356237335694
10
253.59878563428367
20
140.79663407471006
10
241.84368818640826
20
141.82507172034212
42
0.41421356237335444
10
240.76033775475508
20
140.91603275405041
10
239.73190010912305
20
129.16093530617499
42
0.41421356237334744
10
240.64093907541474
20
128.07758487452185
10
252.39603652329012
20
127.04914722888974
42
0.41421356237336393
0
LWPOLYLINE
5
141
100
AcDbEntity
8
0
100
AcDbPolyline
90
8
70
1
43
0.0
10
217.64862061264384
20
142.93804671141919
10
205.8935231647684
20
143.96648435705137
42
0.41421356237335172
10
204.81017273311525
20
143.05744539075957
10
203.78173508748318
20
131.30234794288415
42
0.41421356237335877
10
204.6907740537749
20
130.21899751123098
10
216.44587150165029
20
129.19055986559891
42
0.41421356237334928
10
217.52922193330349
20
130.0995988318906
10
218.55765957893553
20
141.85469627976605
42
0.41421356237335261
0
LWPOLYLINE
5
142
100
AcDbEntity
8
0
100
AcDbPolyline
90
8
70
1
43
0.0
10
49.558965980847503
20
141.85469057196644
42
-0.41421356237336404
10
50.468004925243832
20
142.93804102199195
10
62.22310235233369
20
143.96647890520404
42
-0.41421356237335372
10
63.306452802359196
20
143.0574399608077
10
64.334890685571281
20
131.30234253371788
42
-0.41421356237337187
10
63.425851741174952
20
130.21899208369237
10
51.670754314085094
20
129.19055420048028
42
-0.41421356237335372
10
50.587403864059588
20
130.09959314487662
0
CIRCLE
5
143
100
AcDbEntity
8
0
100
AcDbCircle
10
22.058312498520309
20
120.21984620027868
30
0
40
1.1000000000000005
210
-0
220
0
230
1
0
CIRCLE
5
144
100
AcDbEntity
8
0
100
AcDbCircle
10
94.058312574310818
20
112.71984692786758
30
0
40
1.1000000000000005
210
-0
220
0
230
1
0
LWPOLYLINE
5
145
100
AcDbEntity
8
0
100
AcDbPolyline
90
8
70
1
43
0.0
10
86.206376039743134
20
136.02654894230321
10
87.234813922955254
20
124.27145151521337
42
0.41421356237335466
10
88.318164372980846
20
123.36241257081694
10
100.07326180007068
20
124.39085045402912
42
0.41421356237336976
10
100.9823007444671
20
125.47420090405465
10
99.953862861254933
20
137.22929833114446
42
0.4142135623733641
10
98.870512411229399
20
138.13833727554089
10
87.115414984139576
20
137.10989939232874
42
0.41421356237338014
0
LWPOLYLINE
5
146
100
AcDbEntity
8
0
100
AcDbPolyline
90
8
70
1
43
0.0
10
51.040612151985471
20
124.91938458693906
10
52.069050035197577
20
113.16428715984921
42
0.41421356237335838
10
53.152400485223161
20
112.2552482154528
10
64.907497912312991
20
113.283686098665
42
0.41421356237337187
10
65.816536856709433
20
114.36703654869049
10
64.788098973497242
20
126.12213397578033
42
0.41421356237335116
10
63.704748523471736
20
127.03117292017677
10
51.949651096381892
20
126.00273503696457
42
0.41421356237336243
0
LWPOLYLINE
5
147
100
AcDbEntity
8
0
100
AcDbPolyline
90
8
70
1
43
0.0
10
32.58617310743719
20
129.32774840044956
10
33.614610990649297
20
117.57265097335971
42
0.41421356237335966
10
34.697961440674881
20
116.66361202896329
10
46.453058867764724
20
117.69204991217549
42
0.41421356237335205
10
47.362097812161146
20
118.77540036220097
10
46.333659928948961
20
130.53049778929082
42
0.4142135623733596
10
45.250309478923462
20
131.43953673368725
10
33.495212051833619
20
130.41109885047507
42
0.41421356237337215
0
LWPOLYLINE
5
148
100
AcDbEntity
8
0
100
AcDbPolyline
90
8
70
1
43
0.0
10
68.492760080763887
20
131.96725876330004
10
69.521197963975993
20
120.21216133621017
42
0.41421356237335039
10
70.60454841400157
20
119.30312239181376
10
82.359645841091421
20
120.33156027502596
42
0.41421356237335422
10
83.268684785487835
20
121.41491072505144
10
82.240246902275643
20
133.17000815214129
42
0.41421356237337542
10
81.156896452250152
20
134.07904709653769
10
69.401799025160315
20
133.05060921332552
42
0.41421356237337215
0
LWPOLYLINE
5
149
100
AcDbEntity
8
0
100
AcDbPolyline
90
8
70
1
43
0.0
10
188.83967249075553
20
167.04062922937126
10
187.81123484512338
20
155.28553178149588
42
0.41421356237337248
10
188.72027381141518
20
154.2021813498427
10
200.47537125929057
20
153.17374370421058
42
0.41421356237336393
10
201.55872169094377
20
154.08278267050233
10
202.58715933657584
20
165.83788011837777
42
0.41421356237334744
10
201.67812037028412
20
166.92123055003088
10
189.92302292240873
20
167.94966819566298
42
0.41421356237337947
0
LWPOLYLINE
5
150
100
AcDbEntity
8
0
100
AcDbPolyline
90
8
70
1
43
0.0
10
206.29182056197715
20
159.99275440573223
10
205.26338291634499
20
148.23765695785681
42
0.41421356237337292
10
206.17242188263677
20
147.15430652620364
10
217.92751933051218
20
146.12586888057155
42
0.41421356237336393
10
219.01086976216536
20
147.03490784686326
10
220.03930740779739
20
158.79000529473868
42
0.41421356237335921
10
219.13026844150573
20
159.87335572639185
10
207.37517099363032
20
160.90179337202392
42
0.41421356237337947
0
LWPOLYLINE
5
151
100
AcDbEntity
8
0
100
AcDbPolyline
90
8
70
1
43
0.0
10
224.74625951742883
20
164.40111959222173
10
223.71782187179667
20
152.64602214434632
42
0.41421356237336121
10
224.62686083808848
20
151.56267171269315
10
236.38195828596389
20
150.53423406706105
42
0.41421356237335966
10
237.46530871761706
20
151.4432730333528
10
238.4937463632491
20
163.19837048122821
42
0.41421356237333706
10
237.58470739695741
20
164.28172091288133
10
225.82960994908203
20
165.31015855851342
42
0.41421356237340018
0
LWPOLYLINE
5
152
100
AcDbEntity
8
0
100
AcDbPolyline
90
8
70
1
43
0.0
10
56.468407115115212
20
183.49150586487588
10
58.517455729018351
20
171.8707744000385
42
0.41421356237337131
10
59.675911667894674
20
171.05961483640002
10
71.296643132732044
20
173.10866345030325
42
0.41421356237339374
10
72.107802696370541
20
174.2671193891795
10
70.058754082467331
20
185.88785085401685
42
0.41421356237336765
10
68.900298143591087
20
186.69901041765536
10
57.279566678753717
20
184.64996180375212
42
0.41421356237335277
0
LWPOLYLINE
5
153
100
AcDbEntity
8
0
100
AcDbPolyline
90
8
70
1
43
0.0
10
75.304091256356131
20
186.98244770224284
10
78.358156103751952
20
175.58452298289583
42
0.4142135623733581
10
79.582900982289488
20
174.87741621408642
10
90.980825701636434
20
177.93148106148226
42
0.41421356237337353
10
91.687932470445901
20
179.15622594001979
10
88.63386762304998
20
190.55415065936674
42
0.41421356237336987
10
87.409122744512544
20
191.26125742817621
10
76.011198025165584
20
188.20719258078032
42
0.41421356237336049
0
LWPOLYLINE
5
154
100
AcDbEntity
8
0
100
AcDbPolyline
90
8
70
1
43
0.0
10
83.243079697466953
20
169.89716891235793
10
84.271517580679046
20
158.14207148526808
42
0.41421356237337154
10
85.354868030704637
20
157.23303254087168
10
97.109965457794459
20
158.26147042408385
42
0.4142135623733702
10
98.019004402190888
20
159.34482087410936
10
96.99056651897871
20
171.09991830119918
42
0.41421356237338058
10
95.907216068953204
20
172.00895724559561
10
84.152118641863382
20
170.98051936238346
42
0.41421356237338014
0
LWPOLYLINE
5
155
100
AcDbEntity
8
0
100
AcDbPolyline
90
8
70
1
43
0.0
10
93.69548029146722
20
192.67909486170535
10
98.682375888080344
20
181.98466302506807
42
0.41421356237336976
10
100.01130194174563
20
181.50097351320159
10
110.70573377838286
20
186.48786910981482
42
0.41421356237334023
10
111.18942329024935
20
187.81679516348004
10
106.20252769363616
20
198.51122700011726
42
0.41421356237337259
10
104.87360163997096
20
198.99491651198375
10
94.179169803333707
20
194.00802091537057
42
0.41421356237332857
0
LWPOLYLINE
5
156
100
AcDbEntity
8
0
100
AcDbPolyline
90
8
70
1
43
0.0
10
10.645504660211005
20
173.58390117873031
10
11.673942543423108
20
161.82880375164046
42
0.41421356237334023
10
12.757292993448699
20
160.91976480724406
10
24.512390420538537
20
161.94820269045624
42
0.4142135623733243
10
25.421429364934962
20
163.03155314048172
10
24.392991481722781
20
174.7866505675716
42
0.4142135623733369
10
23.309641031697272
20
175.695689511968
10
11.55454360460743
20
174.66725162875582
42
0.41421356237335105
0
LWPOLYLINE
5
157
100
AcDbEntity
8
0
100
AcDbPolyline
90
8
70
1
43
0.0
10
171.12605744973479
20
171.09991905036807
10
170.09761980410261
20
159.34482160249269
42
0.41421356237336165
10
171.00665877039438
20
158.26147117083949
10
182.7617562182698
20
157.23303352520739
42
0.41421356237334878
10
183.84510664992297
20
158.14207249149914
10
184.87354429555506
20
169.89716993937458
42
0.41421356237333801
10
183.96450532926337
20
170.98052037102772
10
172.20940788138793
20
172.00895801665979
42
0.41421356237339929
0
LWPOLYLINE
5
158
100
AcDbEntity
8
0
100
AcDbPolyline
90
8
70
1
43
0.0
10
198.05786958737016
20
185.88785314749927
10
196.00882120833131
20
174.26712164124896
42
0.41421356237333978
10
196.81998079538312
20
173.10866571876687
10
208.44071230163343
20
171.05961733972808
42
0.41421356237334339
10
209.59916822411557
20
171.87077692677985
10
211.64821660315431
20
183.49150843303016
42
0.41421356237332108
10
210.83705701610259
20
184.64996435551228
10
199.21632550985234
20
186.69901273455099
42
0.41421356237341694
0
LWPOLYLINE
5
159
100
AcDbEntity
8
0
100
AcDbPolyline
90
8
70
1
43
0.0
10
179.48275595247787
20
190.55415157743118
10
176.4286913354432
20
179.15622679635914
42
0.41421356237331958
10
177.13579812900571
20
177.9314819321128
10
188.53372291007781
20
174.87741731507828
42
0.41421356237332502
10
189.75846777432412
20
175.58452410864064
10
192.81253239135867
20
186.98244888971277
42
0.41421356237332502
10
192.10542559779626
20
188.2071937539591
10
180.70750081672418
20
191.26125837099363
42
0.41421356237335782
0
LWPOLYLINE
5
160
100
AcDbEntity
8
0
100
AcDbPolyline
90
8
70
1
43
0.0
10
161.91409572107278
20
198.51122756310502
10
156.92720034060272
20
187.81679562567859
42
0.41421356237335999
10
157.41088987932781
20
186.48786958178906
10
168.10532181675427
20
181.50097420131911
42
0.4142135623733641
10
169.43424786064381
20
181.98466374004411
10
174.42114324111373
20
192.67909567747057
42
0.41421356237335533
10
173.93745370238875
20
194.00802172136008
10
163.24302176496229
20
198.99491710183008
42
0.41421356237337414
0
LWPOLYLINE
5
161
100
AcDbEntity
8
0
100
AcDbPolyline
90
8
70
1
43
0.0
10
243.72363241247888
20
174.78665278399569
10
242.69519476684673
20
163.03155533612028
42
0.41421356237334567
10
243.6042337331385
20
161.9482049044671
10
255.35933118101394
20
160.91976725883507
42
0.41421356237339929
10
256.44268161266712
20
161.82880622512675
10
257.47111925829915
20
173.5839036730022
42
0.41421356237333801
10
256.56208029200747
20
174.66725410465534
10
244.80698284413208
20
175.69569175028738
42
0.41421356237337947
0
CIRCLE
5
162
100
AcDbEntity
8
0
100
AcDbCircle
10
254.05831187703811
20
181.71984854473175
30
0
40
1.1000000000000005
210
-0
220
0
230
1
0
CIRCLE
5
163
100
AcDbEntity
8
0
100
AcDbCircle
10
194.05831174566794
20
194.71984793840767
30
0
40
1.1000000000000005
210
-0
220
0
230
1
0
CIRCLE
5
164
100
AcDbEntity
8
0
100
AcDbCircle
10
166.55831195282866
20
174.21984766050915
30
0
40
1.1000000000000005
210
-0
220
0
230
1
0
CIRCLE
5
165
100
AcDbEntity
8
0
100
AcDbCircle
10
74.058311745667936
20
194.71984672575957
30
0
40
1.1000000000000005
210
-0
220
0
230
1
0
CIRCLE
5
166
100
AcDbEntity
8
0
100
AcDbCircle
10
14.058311877038141
20
181.71984611943549
30
0
40
1.1000000000000005
210
-0
220
0
230
1
0
CIRCLE
5
167
100
AcDbEntity
8
0
100
AcDbCircle
10
101.55831195282865
20
174.21984700365809
30
0
40
1.1000000000000005
210
-0
220
0
230
1
0
LWPOLYLINE
5
168
100
AcDbEntity
8
0
100
AcDbPolyline
90
8
70
1
43
0.0
10
26.903076536073062
20
146.09624315545437
10
25.874638652860959
20
157.85134058254422
42
0.41421356237335849
10
24.791288202835368
20
158.76037952694065
10
13.036190775745528
20
157.73194164372845
42
0.41421356237336926
10
12.127151831349106
20
156.64859119370297
10
13.155589714561284
20
144.89349376661312
42
0.4142135623733561
10
14.238940164586797
20
143.98445482221666
10
25.994037591676641
20
145.01289270542887
42
0.41421356237336715
0
LWPOLYLINE
5
169
100
AcDbEntity
8
0
100
AcDbPolyline
90
8
70
1
43
0.0
10
44.398802469884942
20
152.64602033225569
10
43.370364586672835
20
164.40111775934554
42
0.41421356237336016
10
42.287014136647244
20
165.31015670374194
10
30.531916709557407
20
164.28171882052979
42
0.41421356237335116
10
29.622877765160986
20
163.19836837050428
10
30.65131564837316
20
151.44327094341443
42
0.41421356237335655
10
31.734666098398673
20
150.53423199901803
10
43.48976352548852
20
151.56266988223021
42
0.41421356237334128
0
LWPOLYLINE
5
170
100
AcDbEntity
8
0
100
AcDbPolyline
90
8
70
1
43
0.0
10
62.853241514433201
20
148.23765851874521
10
61.824803631221108
20
159.99275594583506
42
0.41421356237334589
10
60.741453181195517
20
160.90179489023146
10
48.986355754105666
20
159.87335700701928
42
0.41421356237335188
10
48.077316809709252
20
158.79000655699377
10
49.105754692921437
20
147.03490912990395
42
0.41421356237335116
10
50.189105142946943
20
146.12587018550752
10
61.944202570036786
20
147.15430806871973
42
0.41421356237334667
0
LWPOLYLINE
5
171
100
AcDbEntity
8
0
100
AcDbPolyline
90
8
70
1
43
0.0
10
65.529464738487675
20
165.83787873335473
10
66.557902621699782
20
154.08278130626491
42
0.41421356237335599
10
67.641253071725373
20
153.17374236186848
10
79.396350498815224
20
154.20218024508068
42
0.41421356237335138
10
80.305389443211652
20
155.28553069510619
10
79.276951559999446
20
167.04062812219604
42
0.41421356237333562
10
78.193601109973955
20
167.94966706659244
10
66.438503682884104
20
166.92122918338026
42
0.41421356237333606
0
LWPOLYLINE
5
172
100
AcDbEntity
8
0
100
AcDbPolyline
90
8
70
1
43
0.0
10
242.24198558361695
20
157.85134276902306
10
241.2135479379848
20
146.09624532114765
42
0.41421356237335694
10
242.1225869042766
20
145.01289488949448
10
253.87768435215202
20
143.98445724386238
42
0.41421356237335444
10
254.96103478380519
20
144.89349621015413
10
255.98947242943723
20
156.64859365802954
42
0.41421356237334744
10
255.08043346314554
20
157.73194408968268
10
243.32533601527015
20
158.76038173531478
42
0.41421356237336393
0
LWPOLYLINE
5
173
100
AcDbEntity
8
0
100
AcDbPolyline
90
8
70
1
43
0.0
10
31.104525936299083
20
146.26305838547691
10
32.132963819511183
20
134.50796095838709
42
0.41421356237335849
10
33.216314269536774
20
133.59892201399066
10
44.971411696626618
20
134.62735989720284
42
0.41421356237336671
10
45.880450641023039
20
135.71071034722834
10
44.852012757810861
20
147.46580777431819
42
0.41421356237335372
10
43.768662307785348
20
148.37484671871462
10
32.013564880695505
20
147.34640883550244
42
0.41421356237337609
0
LWPOLYLINE
5
174
100
AcDbEntity
8
0
100
AcDbPolyline
90
8
70
1
43
0.0
10
13.608800002487207
20
139.7132812086756
10
14.63723788569931
20
127.95818378158575
42
0.41421356237335283
10
15.720588335724898
20
127.04914483718935
10
27.475685762814734
20
128.07758272040152
42
0.41421356237337742
10
28.384724707211163
20
129.16093317042703
10
27.356286823998985
20
140.91603059751685
42
0.41421356237336293
10
26.272936373973472
20
141.82506954191328
10
14.517838946883634
20
140.7966316587011
42
0.41421356237337525
0
LWPOLYLINE
5
175
100
AcDbEntity
8
0
100
AcDbPolyline
90
8
70
1
43
0.0
10
79.675249281112045
20
151.01435708156509
10
67.920151854022194
20
149.98591919835297
42
0.41421356237337437
10
67.01111290962578
20
148.90256874832738
10
68.039550792837943
20
137.14747132123756
42
0.41421356237335327
10
69.122901242863463
20
136.2384323768411
10
80.877998669953286
20
137.26687026005331
42
0.41421356237338014
10
81.787037614349728
20
138.35022071007882
10
80.758599731137537
20
150.10531813716864
42
0.41421356237336715
0
LWPOLYLINE
5
176
100
AcDbEntity
8
0
100
AcDbPolyline
90
8
70
1
43
0.0
10
97.388864240091266
20
155.07364726056826
10
85.633766813001444
20
154.04520937735617
42
0.41421356237337859
10
84.724727868605015
20
152.96185892733058
10
85.753165751817193
20
141.20676150024076
42
0.41421356237337492
10
86.836516201842713
20
140.2977225558443
10
98.591613628932535
20
141.32616043905648
42
0.41421356237337492
10
99.500652573328978
20
142.40951088908201
10
98.472214690116786
20
154.16460831617184
42
0.4142135623733702
0
CIRCLE
5
177
100
AcDbEntity
8
0
100
AcDbCircle
10
174.05831257431078
20
112.71984773629967
30
0
40
1.1000000000000005
210
-0
220
0
230
1
0
CIRCLE
5
178
100
AcDbEntity
8
0
100
AcDbCircle
10
246.05831249852031
20
120.21984846388854
30
0
40
1.1000000000000005
210
-0
220
0
230
1
0
LWPOLYLINE
5
179
100
AcDbEntity
8
0
100
AcDbPolyline
90
8
70
1
43
0.0
10
221.78296485970506
20
130.53049956227642
10
220.75452721407288
20
118.77540211440103
42
0.41421356237336165
10
221.66356618036468
20
117.69205168274783
10
233.41866362824007
20
116.66361403711576
42
0.41421356237335444
10
234.50201405989327
20
117.5726530034075
10
235.53045170552534
20
129.32775045128292
42
0.41421356237335877
10
234.62141273923365
20
130.4111008829361
10
222.86631529135821
20
131.43953852856816
42
0.41421356237336304
0
LWPOLYLINE
5
180
100
AcDbEntity
8
0
100
AcDbPolyline
90
8
70
1
43
0.0
10
185.87637783303177
20
133.17000919942598
10
184.84794018739959
20
121.41491175155056
42
0.4142135623733551
10
185.75697915369136
20
120.33156131989739
10
197.5120766015668
20
119.30312367426529
42
0.41421356237334789
10
198.59542703321995
20
120.21216264055703
10
199.62386467885204
20
131.96726008843245
42
0.41421356237334744
10
198.71482571256035
20
133.05061052008563
10
186.95972826468491
20
134.07904816571769
42
0.41421356237334789
0
LWPOLYLINE
5
181
100
AcDbEntity
8
0
100
AcDbPolyline
90
8
70
1
43
0.0
10
203.32852590425333
20
126.12213537578694
10
202.30008825862117
20
114.36703792791153
42
0.41421356237335555
10
203.20912722491298
20
113.28368749625832
10
214.96422467278836
20
112.25524985062626
42
0.41421356237336393
10
216.04757510444156
20
113.16428881691799
10
217.07601275007363
20
124.9193862647934
42
0.41421356237336299
10
216.16697378378191
20
126.00273669644658
10
204.41187633590653
20
127.03117434207867
42
0.41421356237334878
0
LWPOLYLINE
5
182
100
AcDbEntity
8
0
100
AcDbPolyline
90
8
70
1
43
0.0
10
168.16276179201097
20
137.22929902042279
10
167.13432414637882
20
125.47420157254737
42
0.4142135623733777
10
168.04336311267062
20
124.3908511408942
10
179.798460560546
20
123.3624134952621
42
0.41421356237336393
10
180.88181099219921
20
124.27145246155384
10
181.91024863783127
20
136.02654990942926
42
0.41421356237336299
10
181.00120967153956
20
137.10990034108244
10
169.24611222366417
20
138.1383379867145
42
0.41421356237334878
0
LWPOLYLINE
5
183
100
AcDbEntity
8
0
100
AcDbPolyline
90
8
70
1
43
0.0
10
223.26461168856693
20
147.46580957724908
10
222.23617404293478
20
135.71071212937366
42
0.41421356237336121
10
223.14521300922655
20
134.62736169772052
10
234.90031045710197
20
133.59892405208842
42
0.41421356237334878
10
235.98366088875514
20
134.50796301838014
10
237.01209853438723
20
146.26306046625555
42
0.41421356237336954
10
236.10305956809552
20
147.34641089790873
10
224.3479621202201
20
148.37484854354079
42
0.41421356237336954
0
LWPOLYLINE
5
184
100
AcDbEntity
8
0
100
AcDbPolyline
90
8
70
1
43
0.0
10
142.05831387276595
20
187.71984860501973
10
142.05831369086874
20
205.71984890304293
42
0.41421356237310542
10
141.05831368076335
20
206.71984889293753
10
127.05831344234477
20
206.71984875146197
42
0.41421356237310542
10
126.05831345245016
20
205.71984874135651
10
126.05831363434739
20
187.71984844333332
42
0.41421356237309503
10
127.0583136444528
20
186.71984845343871
10
141.05831388287135
20
186.71984859491431
42
0.41421356237309503
0
ENDSEC
0
SECTION
2
OBJECTS
0
DICTIONARY
5
C
100
AcDbDictionary
3
ACAD_GROUP
350
D
3
ACAD_MLINESTYLE
350
17
0
DICTIONARY
5
D
100
AcDbDictionary
0
DICTIONARY
5
1A
330
C
100
AcDbDictionary
0
DICTIONARY
5
17
100
AcDbDictionary
0
ENDSEC
0
EOF
